<svg width="32" height="32" viewBox="0 0 32 32" fill="none" xmlns="http://www.w3.org/2000/svg">
<g clip-path="url(#clip0_36_182)">
<path d="M12.4391 0C5.5709 0 0.00195312 5.56895 0.00195312 12.4372C0.00195312 19.3055 5.5709 24.8744 12.4392 24.8744C15.0803 24.8744 17.5296 24.0507 19.543 22.6474L19.5445 22.646L28.7685 31.87C28.9397 32.0412 29.2118 32.0456 29.3874 31.87L31.8734 29.384C32.0446 29.2129 32.0358 28.929 31.872 28.7651L22.6493 19.5425C24.0526 17.5277 24.8763 15.0783 24.8763 12.4372C24.8763 5.56895 19.3074 0 12.4391 0ZM12.4391 21.948C7.18622 21.948 2.92832 17.6901 2.92832 12.4372C2.92832 7.18432 7.18627 2.92641 12.4391 2.92641C17.692 2.92641 21.9499 7.18432 21.9499 12.4372C21.9499 17.6901 17.692 21.948 12.4391 21.948Z" fill="black"/>
</g>
<defs>
<clipPath id="clip0_36_182">
<rect width="32" height="32" fill="white"/>
</clipPath>
</defs>
</svg>
